<svg xmlns="http://www.w3.org/2000/svg" width="1400" height="476" viewBox="0 0 1400 476" role="img" aria-labelledby="t d">
<title id="t">Vox Ecclesiae</title><desc id="d">Hemeroteca Digital da Imprensa Católica de Goiás</desc>
<defs>
  <linearGradient id="paper" x1="0" y1="0" x2="0" y2="1"><stop stop-color="#ead3a0"/><stop offset=".52" stop-color="#e2c58a"/><stop offset="1" stop-color="#d7b779"/></linearGradient>
  <filter id="grain"><feTurbulence baseFrequency=".8" numOctaves="2" seed="7" type="fractalNoise" result="n"/><feColorMatrix in="n" values="0 0 0 0 0.20 0 0 0 0 0.15 0 0 0 0 0.09 0 0 0 .12 0"/><feBlend in="SourceGraphic" mode="multiply"/></filter>
  <path id="arc" d="M205 270 Q700 5 1195 270"/>
</defs>
<rect width="1400" height="476" fill="url(#paper)"/>
<g filter="url(#grain)"><rect x="18" y="18" width="1364" height="440" rx="2" fill="none" stroke="#21170f" stroke-width="4"/><rect x="30" y="30" width="1340" height="416" fill="none" stroke="#21170f" stroke-width="2"/></g>
<g fill="#21170f" stroke="#21170f">
  <path d="M45 55h210c-72 20-126 54-160 105H45z" fill="none" stroke-width="5"/><path d="M1355 55h-210c72 20 126 54 160 105h50z" fill="none" stroke-width="5"/>
  <path d="M61 76c32 1 54 18 54 42 0 21-18 38-40 38-17 0-31-12-31-27 0-11 9-20 20-20 9 0 16 7 16 15" fill="none" stroke-width="6"/><path d="M1339 76c-32 1-54 18-54 42 0 21 18 38 40 38 17 0 31-12 31-27 0-11-9-20-20-20-9 0-16 7-16 15" fill="none" stroke-width="6"/>
  <path d="M53 165v135M82 165v135M1318 165v135M1347 165v135" stroke-width="7"/>
</g>
<text font-family="Georgia, 'Times New Roman', serif" font-size="116" font-weight="700" letter-spacing="2" fill="#21170f" stroke="#21170f" stroke-width="1.6"><textPath href="#arc" startOffset="50%" text-anchor="middle">VOX ECCLESIAE</textPath></text>
<path d="M350 300h240M810 300h240" stroke="#21170f" stroke-width="2"/><text x="700" y="309" text-anchor="middle" font-family="Georgia, serif" font-size="38" fill="#21170f">❦</text>
<text x="700" y="370" text-anchor="middle" font-family="Georgia, 'Times New Roman', serif" font-size="43" font-weight="700" fill="#21170f">HEMEROTECA DIGITAL DA IMPRENSA CATÓLICA DE GOIÁS</text>
<path d="M55 403h500M845 403h500" stroke="#21170f" stroke-width="3"/><text x="700" y="414" text-anchor="middle" font-family="Georgia, serif" font-size="34" fill="#21170f">✤</text>
<text x="700" y="448" text-anchor="middle" font-family="Georgia, 'Times New Roman', serif" font-size="27" font-weight="700" letter-spacing="2" fill="#21170f">PRESERVANDO A MEMÓRIA DA FÉ  |  DA IMPRENSA  |  E DA HISTÓRIA GOIANA</text>
</svg>